# ShipQA nominal reference mesh
# Units: millimetres
v 0.000000 0.000000 0.000000
v 0.000000 0.000000 12.000000
v 4000.000000 0.000000 0.000000
v 4000.000000 0.000000 12.000000
v 4000.000000 0.000000 0.000000
v 4000.000000 0.000000 12.000000
v 4000.000000 2400.000000 0.000000
v 4000.000000 2400.000000 12.000000
v 4000.000000 2400.000000 0.000000
v 4000.000000 2400.000000 12.000000
v 0.000000 2400.000000 0.000000
v 0.000000 2400.000000 12.000000
v 0.000000 2400.000000 0.000000
v 0.000000 2400.000000 12.000000
v 0.000000 0.000000 0.000000
v 0.000000 0.000000 12.000000
v 0.000000 0.000000 0.000000
v 4000.000000 0.000000 0.000000
v 0.000000 2400.000000 0.000000
v 4000.000000 2400.000000 0.000000
v 0.000000 0.000000 12.000000
v 0.000000 2400.000000 12.000000
v 4000.000000 0.000000 12.000000
v 4000.000000 2400.000000 12.000000
v 0.000000 1960.000000 162.000000
v 0.000000 1960.000000 172.000000
v 4000.000000 1960.000000 162.000000
v 4000.000000 1960.000000 172.000000
v 4000.000000 1960.000000 162.000000
v 4000.000000 1960.000000 172.000000
v 4000.000000 2040.000000 162.000000
v 4000.000000 2040.000000 172.000000
v 4000.000000 2040.000000 162.000000
v 4000.000000 2040.000000 172.000000
v 0.000000 2040.000000 162.000000
v 0.000000 2040.000000 172.000000
v 0.000000 2040.000000 162.000000
v 0.000000 2040.000000 172.000000
v 0.000000 1960.000000 162.000000
v 0.000000 1960.000000 172.000000
v 0.000000 1960.000000 162.000000
v 4000.000000 1960.000000 162.000000
v 0.000000 2040.000000 162.000000
v 4000.000000 2040.000000 162.000000
v 0.000000 1960.000000 172.000000
v 0.000000 2040.000000 172.000000
v 4000.000000 1960.000000 172.000000
v 4000.000000 2040.000000 172.000000
v 0.000000 1996.000000 12.000000
v 0.000000 1996.000000 162.000000
v 4000.000000 1996.000000 12.000000
v 4000.000000 1996.000000 162.000000
v 4000.000000 1996.000000 12.000000
v 4000.000000 1996.000000 162.000000
v 4000.000000 2004.000000 12.000000
v 4000.000000 2004.000000 162.000000
v 4000.000000 2004.000000 12.000000
v 4000.000000 2004.000000 162.000000
v 0.000000 2004.000000 12.000000
v 0.000000 2004.000000 162.000000
v 0.000000 2004.000000 12.000000
v 0.000000 2004.000000 162.000000
v 0.000000 1996.000000 12.000000
v 0.000000 1996.000000 162.000000
v 0.000000 1996.000000 12.000000
v 4000.000000 1996.000000 12.000000
v 0.000000 2004.000000 12.000000
v 4000.000000 2004.000000 12.000000
v 0.000000 1996.000000 162.000000
v 0.000000 2004.000000 162.000000
v 4000.000000 1996.000000 162.000000
v 4000.000000 2004.000000 162.000000
v 0.000000 1560.000000 162.000000
v 0.000000 1560.000000 172.000000
v 4000.000000 1560.000000 162.000000
v 4000.000000 1560.000000 172.000000
v 4000.000000 1560.000000 162.000000
v 4000.000000 1560.000000 172.000000
v 4000.000000 1640.000000 162.000000
v 4000.000000 1640.000000 172.000000
v 4000.000000 1640.000000 162.000000
v 4000.000000 1640.000000 172.000000
v 0.000000 1640.000000 162.000000
v 0.000000 1640.000000 172.000000
v 0.000000 1640.000000 162.000000
v 0.000000 1640.000000 172.000000
v 0.000000 1560.000000 162.000000
v 0.000000 1560.000000 172.000000
v 0.000000 1560.000000 162.000000
v 4000.000000 1560.000000 162.000000
v 0.000000 1640.000000 162.000000
v 4000.000000 1640.000000 162.000000
v 0.000000 1560.000000 172.000000
v 0.000000 1640.000000 172.000000
v 4000.000000 1560.000000 172.000000
v 4000.000000 1640.000000 172.000000
v 0.000000 1596.000000 12.000000
v 0.000000 1596.000000 162.000000
v 4000.000000 1596.000000 12.000000
v 4000.000000 1596.000000 162.000000
v 4000.000000 1596.000000 12.000000
v 4000.000000 1596.000000 162.000000
v 4000.000000 1604.000000 12.000000
v 4000.000000 1604.000000 162.000000
v 4000.000000 1604.000000 12.000000
v 4000.000000 1604.000000 162.000000
v 0.000000 1604.000000 12.000000
v 0.000000 1604.000000 162.000000
v 0.000000 1604.000000 12.000000
v 0.000000 1604.000000 162.000000
v 0.000000 1596.000000 12.000000
v 0.000000 1596.000000 162.000000
v 0.000000 1596.000000 12.000000
v 4000.000000 1596.000000 12.000000
v 0.000000 1604.000000 12.000000
v 4000.000000 1604.000000 12.000000
v 0.000000 1596.000000 162.000000
v 0.000000 1604.000000 162.000000
v 4000.000000 1596.000000 162.000000
v 4000.000000 1604.000000 162.000000
v 0.000000 1160.000000 162.000000
v 0.000000 1160.000000 172.000000
v 4000.000000 1160.000000 162.000000
v 4000.000000 1160.000000 172.000000
v 4000.000000 1160.000000 162.000000
v 4000.000000 1160.000000 172.000000
v 4000.000000 1240.000000 162.000000
v 4000.000000 1240.000000 172.000000
v 4000.000000 1240.000000 162.000000
v 4000.000000 1240.000000 172.000000
v 0.000000 1240.000000 162.000000
v 0.000000 1240.000000 172.000000
v 0.000000 1240.000000 162.000000
v 0.000000 1240.000000 172.000000
v 0.000000 1160.000000 162.000000
v 0.000000 1160.000000 172.000000
v 0.000000 1160.000000 162.000000
v 4000.000000 1160.000000 162.000000
v 0.000000 1240.000000 162.000000
v 4000.000000 1240.000000 162.000000
v 0.000000 1160.000000 172.000000
v 0.000000 1240.000000 172.000000
v 4000.000000 1160.000000 172.000000
v 4000.000000 1240.000000 172.000000
v 0.000000 1196.000000 12.000000
v 0.000000 1196.000000 162.000000
v 4000.000000 1196.000000 12.000000
v 4000.000000 1196.000000 162.000000
v 4000.000000 1196.000000 12.000000
v 4000.000000 1196.000000 162.000000
v 4000.000000 1204.000000 12.000000
v 4000.000000 1204.000000 162.000000
v 4000.000000 1204.000000 12.000000
v 4000.000000 1204.000000 162.000000
v 0.000000 1204.000000 12.000000
v 0.000000 1204.000000 162.000000
v 0.000000 1204.000000 12.000000
v 0.000000 1204.000000 162.000000
v 0.000000 1196.000000 12.000000
v 0.000000 1196.000000 162.000000
v 0.000000 1196.000000 12.000000
v 4000.000000 1196.000000 12.000000
v 0.000000 1204.000000 12.000000
v 4000.000000 1204.000000 12.000000
v 0.000000 1196.000000 162.000000
v 0.000000 1204.000000 162.000000
v 4000.000000 1196.000000 162.000000
v 4000.000000 1204.000000 162.000000
v 0.000000 760.000000 162.000000
v 0.000000 760.000000 172.000000
v 4000.000000 760.000000 162.000000
v 4000.000000 760.000000 172.000000
v 4000.000000 760.000000 162.000000
v 4000.000000 760.000000 172.000000
v 4000.000000 840.000000 162.000000
v 4000.000000 840.000000 172.000000
v 4000.000000 840.000000 162.000000
v 4000.000000 840.000000 172.000000
v 0.000000 840.000000 162.000000
v 0.000000 840.000000 172.000000
v 0.000000 840.000000 162.000000
v 0.000000 840.000000 172.000000
v 0.000000 760.000000 162.000000
v 0.000000 760.000000 172.000000
v 0.000000 760.000000 162.000000
v 4000.000000 760.000000 162.000000
v 0.000000 840.000000 162.000000
v 4000.000000 840.000000 162.000000
v 0.000000 760.000000 172.000000
v 0.000000 840.000000 172.000000
v 4000.000000 760.000000 172.000000
v 4000.000000 840.000000 172.000000
v 0.000000 796.000000 12.000000
v 0.000000 796.000000 162.000000
v 4000.000000 796.000000 12.000000
v 4000.000000 796.000000 162.000000
v 4000.000000 796.000000 12.000000
v 4000.000000 796.000000 162.000000
v 4000.000000 804.000000 12.000000
v 4000.000000 804.000000 162.000000
v 4000.000000 804.000000 12.000000
v 4000.000000 804.000000 162.000000
v 0.000000 804.000000 12.000000
v 0.000000 804.000000 162.000000
v 0.000000 804.000000 12.000000
v 0.000000 804.000000 162.000000
v 0.000000 796.000000 12.000000
v 0.000000 796.000000 162.000000
v 0.000000 796.000000 12.000000
v 4000.000000 796.000000 12.000000
v 0.000000 804.000000 12.000000
v 4000.000000 804.000000 12.000000
v 0.000000 796.000000 162.000000
v 0.000000 804.000000 162.000000
v 4000.000000 796.000000 162.000000
v 4000.000000 804.000000 162.000000
v 0.000000 360.000000 162.000000
v 0.000000 360.000000 172.000000
v 4000.000000 360.000000 162.000000
v 4000.000000 360.000000 172.000000
v 4000.000000 360.000000 162.000000
v 4000.000000 360.000000 172.000000
v 4000.000000 440.000000 162.000000
v 4000.000000 440.000000 172.000000
v 4000.000000 440.000000 162.000000
v 4000.000000 440.000000 172.000000
v 0.000000 440.000000 162.000000
v 0.000000 440.000000 172.000000
v 0.000000 440.000000 162.000000
v 0.000000 440.000000 172.000000
v 0.000000 360.000000 162.000000
v 0.000000 360.000000 172.000000
v 0.000000 360.000000 162.000000
v 4000.000000 360.000000 162.000000
v 0.000000 440.000000 162.000000
v 4000.000000 440.000000 162.000000
v 0.000000 360.000000 172.000000
v 0.000000 440.000000 172.000000
v 4000.000000 360.000000 172.000000
v 4000.000000 440.000000 172.000000
v 0.000000 396.000000 12.000000
v 0.000000 396.000000 162.000000
v 4000.000000 396.000000 12.000000
v 4000.000000 396.000000 162.000000
v 4000.000000 396.000000 12.000000
v 4000.000000 396.000000 162.000000
v 4000.000000 404.000000 12.000000
v 4000.000000 404.000000 162.000000
v 4000.000000 404.000000 12.000000
v 4000.000000 404.000000 162.000000
v 0.000000 404.000000 12.000000
v 0.000000 404.000000 162.000000
v 0.000000 404.000000 12.000000
v 0.000000 404.000000 162.000000
v 0.000000 396.000000 12.000000
v 0.000000 396.000000 162.000000
v 0.000000 396.000000 12.000000
v 4000.000000 396.000000 12.000000
v 0.000000 404.000000 12.000000
v 4000.000000 404.000000 12.000000
v 0.000000 396.000000 162.000000
v 0.000000 404.000000 162.000000
v 4000.000000 396.000000 162.000000
v 4000.000000 404.000000 162.000000
f 2 1 3
f 6 5 7
f 10 9 11
f 14 13 15
f 18 17 19
f 22 21 23
f 26 25 27
f 30 29 31
f 34 33 35
f 38 37 39
f 42 41 43
f 46 45 47
f 50 49 51
f 54 53 55
f 58 57 59
f 62 61 63
f 66 65 67
f 70 69 71
f 74 73 75
f 78 77 79
f 82 81 83
f 86 85 87
f 90 89 91
f 94 93 95
f 98 97 99
f 102 101 103
f 106 105 107
f 110 109 111
f 114 113 115
f 118 117 119
f 122 121 123
f 126 125 127
f 130 129 131
f 134 133 135
f 138 137 139
f 142 141 143
f 146 145 147
f 150 149 151
f 154 153 155
f 158 157 159
f 162 161 163
f 166 165 167
f 170 169 171
f 174 173 175
f 178 177 179
f 182 181 183
f 186 185 187
f 190 189 191
f 194 193 195
f 198 197 199
f 202 201 203
f 206 205 207
f 210 209 211
f 214 213 215
f 218 217 219
f 222 221 223
f 226 225 227
f 230 229 231
f 234 233 235
f 238 237 239
f 242 241 243
f 246 245 247
f 250 249 251
f 254 253 255
f 258 257 259
f 262 261 263
f 2 3 4
f 6 7 8
f 10 11 12
f 14 15 16
f 18 19 20
f 22 23 24
f 26 27 28
f 30 31 32
f 34 35 36
f 38 39 40
f 42 43 44
f 46 47 48
f 50 51 52
f 54 55 56
f 58 59 60
f 62 63 64
f 66 67 68
f 70 71 72
f 74 75 76
f 78 79 80
f 82 83 84
f 86 87 88
f 90 91 92
f 94 95 96
f 98 99 100
f 102 103 104
f 106 107 108
f 110 111 112
f 114 115 116
f 118 119 120
f 122 123 124
f 126 127 128
f 130 131 132
f 134 135 136
f 138 139 140
f 142 143 144
f 146 147 148
f 150 151 152
f 154 155 156
f 158 159 160
f 162 163 164
f 166 167 168
f 170 171 172
f 174 175 176
f 178 179 180
f 182 183 184
f 186 187 188
f 190 191 192
f 194 195 196
f 198 199 200
f 202 203 204
f 206 207 208
f 210 211 212
f 214 215 216
f 218 219 220
f 222 223 224
f 226 227 228
f 230 231 232
f 234 235 236
f 238 239 240
f 242 243 244
f 246 247 248
f 250 251 252
f 254 255 256
f 258 259 260
f 262 263 264
